<svg width="156.000000" height="156.000000" viewBox="0 0 156 156" fill="none" xmlns="http://www.w3.org/2000/svg" xmlns:xlink="http://www.w3.org/1999/xlink">
	<desc>
			Created with Pixso.
	</desc>
	<defs/>
	<path id="Facebook_ICO" d="M0 31.1992C0 13.9688 13.9688 0 31.2002 0L124.8 0C142.031 0 156 13.9688 156 31.1992L156 124.801C156 142.031 142.031 156 124.8 156L31.2002 156C13.9688 156 0 142.031 0 124.801L0 31.1992ZM31.2002 15.5996C22.5845 15.5996 15.6001 22.584 15.6001 31.1992L15.6001 124.801C15.6001 133.416 22.5845 140.4 31.2002 140.4L78 140.4L78 85.8008L70.2002 85.8008C65.8921 85.8008 62.3999 82.3086 62.3999 78C62.3999 73.6914 65.8921 70.1992 70.2002 70.1992L78 70.1992L78 58.5C78 43.4219 90.2227 31.1992 105.3 31.1992L109.98 31.1992C114.288 31.1992 117.78 34.6914 117.78 39C117.78 43.3086 114.288 46.8008 109.98 46.8008L105.3 46.8008C98.8384 46.8008 93.6001 52.0391 93.6001 58.5L93.6001 70.1992L109.98 70.1992C114.288 70.1992 117.78 73.6914 117.78 78C117.78 82.3086 114.288 85.8008 109.98 85.8008L93.6001 85.8008L93.6001 140.4L124.8 140.4C133.416 140.4 140.4 133.416 140.4 124.801L140.4 31.1992C140.4 22.584 133.416 15.5996 124.8 15.5996L31.2002 15.5996Z" fill="#000000" fill-opacity="1.000000" fill-rule="evenodd"/>
</svg>
