<svg width="156.000000" height="156.000000" viewBox="0 0 156 156" fill="none" xmlns="http://www.w3.org/2000/svg" xmlns:xlink="http://www.w3.org/1999/xlink">
	<desc>
			Created with Pixso.
	</desc>
	<defs/>
	<path id="Instagram_ICO" d="M45.7832 0.957031C33.0859 1.5293 22.0806 4.63477 13.1938 13.4844C4.27588 22.3789 1.20996 33.4277 0.635742 45.9941C0.278809 53.8359 -1.80908 113.086 4.24512 128.625C8.32715 139.107 16.3677 147.168 26.9463 151.264C31.8828 153.184 37.5176 154.482 45.7832 154.861C114.897 157.99 140.518 156.287 151.321 128.625C153.238 123.701 154.558 118.07 154.923 109.826C158.082 40.5352 154.411 25.5156 142.365 13.4844C132.811 3.95312 121.572 -2.53516 45.7832 0.957031ZM46.4194 140.926C38.8525 140.586 34.7466 139.324 32.0068 138.264C25.1147 135.586 19.938 130.43 17.2759 123.578C12.666 111.771 14.1948 55.6953 14.606 46.623C15.0098 37.7344 16.8105 29.6113 23.0815 23.3398C30.8428 15.5977 40.8701 11.8047 109.146 14.8848C118.057 15.2871 126.198 17.084 132.485 23.3398C140.246 31.082 144.096 41.1875 140.96 109.201C140.619 116.75 139.354 120.846 138.29 123.578C131.266 141.578 115.107 144.078 46.4194 140.926ZM109.899 36.5781C109.899 41.7051 114.067 45.8711 119.213 45.8711C124.359 45.8711 128.534 41.7051 128.534 36.5781C128.534 31.4531 124.359 27.2891 119.213 27.2891C114.067 27.2891 109.899 31.4531 109.899 36.5781ZM37.9287 77.9062C37.9287 99.8633 55.772 117.664 77.7832 117.664C99.7939 117.664 117.638 99.8633 117.638 77.9062C117.638 55.9492 99.7939 38.1602 77.7832 38.1602C55.772 38.1602 37.9287 55.9492 37.9287 77.9062ZM51.9146 77.9062C51.9146 63.6602 63.4946 52.1035 77.7832 52.1035C92.0718 52.1035 103.651 63.6602 103.651 77.9062C103.651 92.1582 92.0718 103.721 77.7832 103.721C63.4946 103.721 51.9146 92.1582 51.9146 77.9062Z" fill="#000000" fill-opacity="1.000000" fill-rule="evenodd"/>
</svg>
