<svg width="156.000000" height="156.000000" viewBox="0 0 156 156" fill="none" xmlns="http://www.w3.org/2000/svg" xmlns:xlink="http://www.w3.org/1999/xlink">
	<desc>
			Created with Pixso.
	</desc>
	<defs/>
	<path id="YouTube_ICO" d="M48.5371 18.6816C66.9131 15.668 89.0864 15.668 107.462 18.6816C124.159 21.4199 137.096 34.9883 139.571 49.6035C142.567 67.2949 142.567 88.7051 139.571 106.396C137.096 121.012 124.159 134.58 107.463 137.318C89.0864 140.332 66.9131 140.332 48.5371 137.318C31.8418 134.58 18.9043 121.012 16.4292 106.396C13.4326 88.7051 13.4331 67.2949 16.4292 49.6035C18.9043 34.9883 31.8418 21.4199 48.5371 18.6816ZM109.452 2.42383C89.7568 -0.808594 66.2441 -0.808594 46.5479 2.42383C25.1719 5.92969 6.38281 23.5879 2.51221 46.4434C-0.837402 66.2227 -0.837402 89.7773 2.51221 109.557C6.3833 132.412 25.1714 150.07 46.5479 153.576C66.2441 156.809 89.7568 156.809 109.452 153.576C130.829 150.07 149.617 132.412 153.488 109.557C156.837 89.7773 156.837 66.2227 153.488 46.4434C149.617 23.5879 130.829 5.92969 109.452 2.42383ZM67.7515 38.3262C65.5752 36.6465 62.7778 36.4902 60.4722 37.918C58.1665 39.3477 56.7271 42.1289 56.7271 45.1582L56.7271 110.842C56.7271 113.869 58.1665 116.652 60.4722 118.082C62.7778 119.51 65.5752 119.354 67.7515 117.674L110.297 84.832C112.27 83.3086 113.455 80.7461 113.455 78C113.455 75.2539 112.27 72.6914 110.297 71.168L67.7515 38.3262ZM93.5801 78L70.9092 95.5L70.9092 60.5L93.5801 78Z" fill="#000000" fill-opacity="1.000000" fill-rule="evenodd"/>
</svg>
